<svg width="636" height="1080" viewBox="0 0 636 1080" fill="none" xmlns="http://www.w3.org/2000/svg">
<mask id="mask0_630_5890" style="mask-type:luminance" maskUnits="userSpaceOnUse" x="0" y="0" width="636" height="1081">
<path d="M635.996 1080.24L635.996 0L0.000183105 0L0.000183105 1080.24H635.996Z" fill="white"/>
</mask>
<g mask="url(#mask0_630_5890)">
<path d="M675.352 1194.72C645.491 1200.09 616.796 1180.95 611.263 1151.97C606.064 1162.07 593.412 1166.17 583.001 1161.13C572.59 1156.09 568.366 1143.8 573.561 1133.7C564.146 1154.08 539.492 1163.19 518.496 1154.05C498.97 1145.56 489.507 1124.27 495.841 1104.95C486.862 1124.93 463.612 1135.53 441.707 1128.83C426.355 1124.14 415.523 1112.11 411.914 1097.97C406.845 1116.8 391.124 1132.12 370.139 1136.13C340.912 1141.72 312.555 1123.26 306.796 1094.9C281.202 1080.46 272.513 1048.62 287.39 1023.78C300.862 1001.28 329.038 992.246 353.247 1001.47C322.331 984.832 308.477 947.997 322.26 915.504C337.101 880.512 378.361 863.825 414.413 878.233C401.039 864.961 401.277 843.681 414.952 830.697C428.627 817.716 450.552 817.951 463.93 831.22C460.904 817.301 470.073 803.635 484.415 800.698C498.756 797.761 512.836 806.661 515.862 820.58C514.411 808.308 522.759 797.149 534.876 794.443C524.001 780.246 519.983 761.395 525.742 743.187C533.539 718.524 556.856 702.63 582.104 702.499C580.169 699.677 578.737 696.467 577.988 692.945C575.231 679.93 582.596 667.196 594.848 662.384C576.524 666.722 557.28 657.368 550.244 639.849C543.205 622.319 550.867 602.779 567.398 593.945C539.195 605.732 505.915 594.769 491.193 568C475.665 539.772 486.66 504.673 515.743 489.602C500.208 492.393 485.279 482.434 482.404 467.356C479.525 452.278 489.789 437.789 505.324 434.994C494.865 435.102 486.295 426.956 486.184 416.805C486.148 413.395 487.088 410.2 488.726 407.444C476.578 410.704 463.025 407.778 453.408 398.571C439.082 384.859 438.923 362.471 453.055 348.566C435.846 346.095 423.955 330.551 426.501 313.848C429.048 297.146 445.063 285.605 462.272 288.076C454.518 287.333 448.521 281.613 447.272 274.503C447.026 274.515 446.788 274.549 446.538 274.553C435.822 274.734 426.985 266.454 426.799 256.053C397.319 273.091 359.188 263.706 341.634 235.093C324.08 206.48 333.75 169.471 363.23 152.434C343.685 147.372 332.068 127.894 337.283 108.928C339.092 102.345 342.717 96.7209 347.46 92.3518C346.79 90.7966 346.33 89.126 346.144 87.363C331.921 104.497 306.078 107.199 288.425 93.395C270.767 79.5909 267.987 54.5081 282.21 37.3742C273.33 46.2279 258.734 46.4165 249.612 37.7976C240.49 29.1787 240.296 15.0128 249.176 6.15913C230.936 3.47607 218.395 -13.0496 221.159 -30.7532C223.924 -48.4567 240.95 -60.6286 259.19 -57.9455C247.998 -75.4489 253.543 -98.4493 271.577 -109.312C289.611 -120.175 313.308 -114.794 324.501 -97.2906C319.789 -112.935 329.038 -129.322 345.152 -133.891C352.62 -136.008 360.235 -135.192 366.748 -132.178C362.135 -143.099 362.686 -155.914 369.472 -166.784C380.835 -184.992 405.255 -190.813 424.015 -179.784C431.154 -203.866 457.06 -217.774 481.872 -210.841C489.055 -208.836 495.326 -205.267 500.482 -200.675C502.568 -213.902 509.374 -226.489 520.713 -235.832C545.691 -256.407 583.12 -253.431 604.319 -229.192C604.616 -235.285 609.943 -239.989 616.221 -239.7C622.499 -239.412 627.346 -234.242 627.048 -228.148C639.217 -256.449 672.718 -269.815 701.877 -258.001C728.407 -247.253 742.193 -219.364 735.292 -193.107C743.256 -210.306 762.829 -220.276 782.513 -215.969C804.993 -211.049 819.104 -189.373 814.035 -167.558C827.076 -182.182 849.857 -183.776 864.925 -171.123C873.289 -164.098 877.497 -154.158 877.374 -144.2C885.14 -153.612 897.253 -159.432 910.611 -158.82C932.765 -157.8 949.875 -139.542 948.828 -118.039C974.307 -115.837 993.122 -94.0032 990.853 -69.2744C989.001 -49.0841 973.664 -33.2206 954.23 -29.2672C971.193 -27.5273 985.943 -15.6287 990.012 1.40889C995.149 22.9041 981.362 44.3725 959.215 49.3613C969.619 50.1428 977.4 58.9657 976.595 69.0627C975.79 79.1598 966.699 86.7124 956.296 85.931C967.148 91.836 971.011 105.163 964.923 115.691C964.673 116.122 964.391 116.522 964.118 116.93C975.143 118.382 985.554 124.036 992.527 133.522C1005.92 151.752 1001.56 177.07 982.782 190.074C1012.02 200.359 1027.12 231.698 1016.53 260.068C1006.46 287.029 976.805 301.592 948.796 294.155C967.616 300.949 978.606 320.496 973.672 339.867C970.491 352.362 961.397 361.897 950.006 366.451C952.517 367.821 954.797 369.681 956.685 372.021C964.312 381.494 962.583 395.179 952.822 402.582C984.269 398.494 1013.18 419.92 1017.39 450.446C1021.6 480.968 999.527 509.026 968.076 513.114C986.395 509.611 1004.18 521.191 1007.78 538.971C1011.39 556.752 999.46 574.009 981.14 577.508C993.792 587.512 995.696 605.578 985.392 617.858C978.991 625.487 969.381 629.083 959.989 628.32C975.306 637.925 983.901 655.89 980.212 674.329C978.534 682.713 974.505 690.054 968.968 695.92C978.051 702.441 982.421 714.001 978.967 725.099C995.831 723.02 1011.24 734.607 1013.38 750.975C1015.52 767.343 1003.58 782.298 986.721 784.376C1019.74 783.787 1047 809.29 1047.61 841.337C1048.22 873.383 1021.94 899.84 988.922 900.433C996.009 910.084 993.693 923.483 983.75 930.362C983.238 930.717 982.707 931.032 982.175 931.34C995.799 938.812 1005.59 952.381 1007.23 968.641C1009.67 992.704 993.447 1014.36 970.007 1020.12C993.403 1017.76 1015.73 1032.16 1021.9 1054.93C1028.73 1080.09 1013.24 1105.85 987.319 1112.47C989.85 1150.4 960.219 1183.14 921.137 1185.59C882.054 1188.05 848.327 1159.29 845.796 1121.36C844.725 1140.91 827.52 1155.92 807.372 1154.88C790.794 1154.02 777.408 1142.55 773.779 1127.62C772.72 1138.32 765.109 1147.83 753.818 1150.99C739.064 1155.11 723.655 1146.85 719.408 1132.53C724.94 1161.51 705.217 1189.36 675.356 1194.73L675.352 1194.72Z" fill="url(#paint0_linear_630_5890)"/>
<path d="M683.958 1130.67C652.915 1130.24 628.107 1105.47 628.548 1075.34C614.488 1095.48 586.269 1100.75 565.514 1087.11C560.608 1083.88 556.594 1079.87 553.453 1075.39C551.549 1077.72 549.376 1079.91 546.873 1081.84C529.164 1095.53 503.373 1092.7 489.265 1075.52C486.112 1088.34 472.849 1096.25 459.642 1093.19C446.435 1090.13 438.281 1077.26 441.434 1064.44C438.059 1087.28 416.249 1103.13 392.718 1099.86C369.187 1096.58 352.85 1075.41 356.226 1052.57C339.647 1051.02 327.503 1036.71 329.105 1020.62C330.707 1004.53 345.446 992.743 362.028 994.298C360.759 965.75 383.576 941.614 412.985 940.382C421.599 940.021 429.821 941.68 437.178 944.906C441.485 938.469 448.347 933.654 456.715 932.041C432.756 929.712 415.277 908.971 417.681 885.717C420.08 862.462 441.45 845.498 465.409 847.83C465.873 847.426 466.365 847.08 466.845 846.706C466.884 846.083 466.924 845.455 466.987 844.828C469.851 816.635 495.718 796.032 524.766 798.808C517.218 794.735 513.399 786.701 514.49 778.868C504.745 773.898 496.369 766.145 490.772 756.025C475.848 729.041 486.287 695.424 514.089 680.938C498.237 675.88 489.61 659.304 494.826 643.918C496.055 640.284 497.967 637.062 500.347 634.295C496.531 630.21 494.623 624.525 495.714 618.681C468.622 623.251 442.842 605.632 438.134 579.336C433.426 553.041 451.579 528.019 478.672 523.45C456.156 517.934 442.513 495.75 448.192 473.896C451.21 462.286 459.099 453.152 469.185 447.92C462.375 441.734 460.856 431.533 466.075 423.642C452.547 423.692 441.541 413.091 441.489 399.96C441.462 392.538 444.944 385.898 450.417 381.521C441.41 374.981 437.484 363.252 441.588 352.493C444.333 345.298 450.096 340.055 456.961 337.576C453.197 335.759 449.977 332.811 447.934 328.892C442.901 319.226 446.891 307.431 456.85 302.542C436.69 310.368 413.81 300.853 405.747 281.286C397.683 261.719 407.488 239.512 427.648 231.686C426.283 229.73 425.403 227.598 424.97 225.415C406.651 227.051 387.84 220.191 375.203 205.413C355.44 182.301 358.042 148.349 380.641 128.298C370.936 135.7 356.84 135.015 347.964 126.288C338.763 117.238 338.556 102.876 347.218 93.5566C347.1 93.5797 346.981 93.6065 346.85 93.5912C346.175 93.5257 345.684 92.9445 345.747 92.2901C325.627 106.448 297.491 102.098 282.904 82.5703C269.129 64.1315 272.378 38.7675 289.722 24.0742C279.794 30.7107 266.107 29.6213 257.477 20.9139C247.879 11.2325 248.18 -4.16909 258.155 -13.4847C267.23 -32.6703 290.61 -41.0814 310.377 -32.2738C314.597 -30.3953 318.274 -27.8547 321.415 -24.8791C324.231 -33.8406 329.771 -42.0937 337.934 -48.3298C359.184 -64.5629 389.973 -60.9984 406.695 -40.3731C406.675 -49.5617 414.329 -57.0257 423.796 -57.0488C433.264 -57.068 440.954 -49.6386 440.978 -40.45C454.946 -54.8546 478.303 -55.536 493.144 -41.9783C498.467 -37.1126 501.941 -31.0728 503.599 -24.6635C511.503 -35.4535 523.925 -43.0599 538.548 -44.6536C556.935 -46.6592 574.093 -38.6446 584.266 -25.1023C583.528 -37.4551 588.644 -49.962 599.266 -58.3961C616.879 -72.3849 642.842 -69.8674 657.254 -52.7721C664.31 -69.7058 684.176 -77.8819 701.627 -71.0338C708.842 -68.2006 714.482 -63.2272 718.154 -57.1874C720.863 -63.7853 725.726 -69.6056 732.516 -73.4974C748.804 -82.8361 769.805 -77.5894 779.427 -61.7836C799.194 -67.1574 819.711 -55.9633 825.248 -36.7738C830.784 -17.5882 819.251 2.32492 799.48 7.69873C837.075 11.91 864.032 44.8997 859.693 81.3885C855.354 117.877 821.365 144.042 783.77 139.831C802.304 142.267 815.293 158.82 812.782 176.808C810.664 191.983 798.187 203.289 783.211 205.002C799.67 206.876 813.27 219.464 815.273 236.136C817.613 255.622 803.236 273.26 783.155 275.531C800.792 280.316 811.096 298.069 806.167 315.192C802.958 326.336 794.074 334.427 783.409 337.422C787.609 339.335 791.194 342.6 793.376 346.965C798.44 357.097 794.086 369.296 783.647 374.211C816.423 383.331 835.377 416.513 825.981 448.328C818.489 473.696 795.232 490.51 769.5 491.669C775.366 494.841 779.986 500.188 781.957 506.955C785.896 520.467 777.805 534.517 763.888 538.344C776.952 541.285 785.083 553.949 782.052 566.629C779.804 576.041 772.026 582.808 762.829 584.467C789.314 587.266 810.743 608.134 812.611 634.837C814.162 657.022 801.772 676.989 782.707 686.693C784.412 687.328 786.054 688.198 787.577 689.334C796.033 695.639 797.623 707.407 791.127 715.614C814.174 721.946 827.568 745.216 821.043 767.585C816.938 781.659 805.921 792.014 792.575 796.19C810.359 800.236 825.347 813.382 830.455 831.694C837.86 858.251 821.682 885.609 794.32 892.796C803.259 903.001 801.986 918.306 791.472 926.983C790.104 928.11 788.64 929.065 787.121 929.862C804.64 938.308 817.347 955.141 819.183 975.439C821.991 1006.45 798.361 1033.8 766.41 1036.52C771.043 1039.44 772.363 1045.45 769.357 1049.95C766.351 1054.45 760.155 1055.73 755.523 1052.81C762.377 1056.71 764.669 1065.26 760.651 1071.91C756.634 1078.57 747.821 1080.79 740.967 1076.89C740.527 1107.02 715.005 1131.1 683.962 1130.67L683.958 1130.67Z" fill="url(#paint1_linear_630_5890)"/>
<path d="M437.714 1132.32C428.27 1145.37 409.713 1148.52 396.26 1139.36C382.811 1130.19 379.562 1112.18 389.006 1099.12C380.816 1104.2 369.936 1101.87 364.705 1093.93C359.474 1085.98 361.873 1075.42 370.059 1070.34C348.658 1064.45 336.228 1042.84 342.297 1022.07C348.365 1001.3 370.631 989.232 392.032 995.122C385.25 972.664 398.512 949.125 421.651 942.542C441.858 936.795 462.914 945.887 472.441 963.244C472.619 962.548 472.873 961.859 473.278 961.208C475.015 958.429 478.343 957.201 481.436 957.894C462.918 950.641 453.154 930.594 459.551 911.955C466.202 892.573 487.786 882.094 507.755 888.55C495.833 884.25 489.757 871.385 494.187 859.814C498.617 848.243 511.872 842.345 523.794 846.645C508.243 835.874 504.634 814.91 515.731 799.817C524.405 788.018 539.488 783.345 553.092 786.99C540.702 778.652 534.475 763.351 538.774 748.465C540.746 741.64 544.672 735.87 549.776 731.512C545.291 729.996 541.067 727.54 537.478 724.064C524.719 711.715 524.687 691.663 537.414 679.279C527.043 673.336 523.6 660.359 529.72 650.293C530.465 649.069 531.318 647.949 532.258 646.929C512.622 645.058 494.612 633.125 486.318 614.27C479.195 598.075 480.829 580.391 489.158 566.179C473.46 558.272 462.24 542.874 460.88 524.501C458.917 497.913 478.303 474.639 504.912 470.478C499.434 470.189 494.473 466.656 492.779 461.266C490.61 454.372 494.612 447.077 501.715 444.972C483.288 444.444 468.788 429.516 469.332 411.632C469.649 401.161 475.075 392.027 483.197 386.333C467.349 387.172 451.555 379.724 442.77 365.616C430.099 345.264 436.825 318.795 457.798 306.496C449.005 292.195 452.583 274.107 465.429 263.829C449.196 254.259 436.928 238.442 432.768 218.964C425.066 182.918 447.918 147.614 484.189 138.387C476.352 139.342 468.614 134.942 465.857 127.424C463.224 120.241 465.98 112.481 472.072 108.262C454.451 116.076 433.192 110.113 422.801 93.6761C415.154 81.5812 415.384 66.9572 422.071 55.4089C404.807 67.3499 381.077 68.5008 362.282 56.5329C337.827 40.9619 331.009 9.10021 347.052 -14.6354C350.697 -44.6957 378.761 -66.1986 409.737 -62.661C436.024 -59.6584 455.95 -39.5797 459.151 -15.1936C461.51 -24.0858 468.586 -31.5306 478.374 -34.0866C490.84 -37.3394 503.599 -31.596 509.381 -20.9639C499.664 -48.7683 513.042 -79.7409 541.158 -92.1784C571.134 -105.436 606.508 -92.6019 620.167 -63.5078C627.695 -87.9402 654.201 -101.825 679.374 -94.5189C704.547 -87.2127 718.852 -61.4869 711.325 -37.0545C718.971 -28.043 717.678 -14.7471 708.469 -7.27149C727.998 -0.265513 743.248 16.3795 746.992 37.7285C752.572 69.5364 730.533 99.712 697.761 105.132C706.597 109.028 710.512 119.136 706.498 127.713C703.492 134.138 696.896 137.879 690.058 137.718C699.363 141.286 705.61 150.421 704.804 160.61C704.158 168.794 699.113 175.608 692.105 179.099C714.66 177.471 736.355 190.732 743.906 212.497C752.846 238.265 738.568 266.185 712.019 274.861C734.384 279.827 748.36 301.449 743.244 323.156C738.128 344.863 715.85 358.429 693.485 353.463C706.565 360.881 710.972 377.187 703.329 389.883C699.601 396.076 693.687 400.245 687.096 402.054C706.49 408.514 721.073 425.64 722.767 446.743C725.036 475.071 703.218 499.822 674.027 502.028C688.801 502.29 700.557 514.123 700.291 528.462C700.021 542.801 687.829 554.211 673.056 553.953C695.266 555.343 712.11 573.947 710.678 595.5C709.845 608.038 702.992 618.782 693.053 625.329C694.802 626.015 696.495 626.915 698.07 628.082C707.529 635.092 709.342 648.21 702.123 657.391C731.362 654.812 757.217 675.726 759.874 704.104C762.531 732.482 740.979 757.577 711.745 760.156C721.791 763.382 727.237 773.902 723.913 783.649C720.59 793.4 709.75 798.685 699.704 795.459C723.981 804.798 735.863 831.467 726.241 855.029C719.011 872.737 701.691 883.646 683.225 884.012C696.579 889.701 706.26 902.254 707.156 917.355C708.429 938.789 691.561 957.166 669.478 958.406C691.522 960.446 707.684 979.443 705.586 1000.83C704.075 1016.2 693.537 1028.58 679.56 1033.6C692.152 1035.08 703.559 1042.99 708.628 1055.22C716.036 1073.09 707.117 1093.41 688.702 1100.6C684.526 1119.49 665.361 1131.52 645.896 1127.47C632.082 1124.59 621.869 1114.38 618.569 1101.95C615.733 1116.54 604.358 1128.89 588.502 1132.51C567.041 1137.42 545.553 1124.51 540.5 1103.68C548.646 1131.23 532.238 1159.97 503.853 1167.87C475.467 1175.78 445.852 1159.85 437.71 1132.3L437.714 1132.32Z" fill="white"/>
</g>
<defs>
<linearGradient id="paint0_linear_630_5890" x1="725.099" y1="466.656" x2="24.7527" y2="466.656" gradientUnits="userSpaceOnUse">
<stop stop-color="#2289E9"/>
<stop offset="0.1" stop-color="#4FA1ED"/>
<stop offset="0.21" stop-color="#7DB9F2"/>
<stop offset="0.33" stop-color="#A5CFF6"/>
<stop offset="0.45" stop-color="#C5E0F9"/>
<stop offset="0.58" stop-color="#DFEDFB"/>
<stop offset="0.71" stop-color="#F0F7FD"/>
<stop offset="0.84" stop-color="#FBFDFE"/>
<stop offset="1" stop-color="white"/>
</linearGradient>
<linearGradient id="paint1_linear_630_5890" x1="721.66" y1="526.272" x2="247.197" y2="526.272" gradientUnits="userSpaceOnUse">
<stop stop-color="#2289E9"/>
<stop offset="0.1" stop-color="#4FA1ED"/>
<stop offset="0.21" stop-color="#7DB9F2"/>
<stop offset="0.33" stop-color="#A5CFF6"/>
<stop offset="0.45" stop-color="#C5E0F9"/>
<stop offset="0.58" stop-color="#DFEDFB"/>
<stop offset="0.71" stop-color="#F0F7FD"/>
<stop offset="0.84" stop-color="#FBFDFE"/>
<stop offset="1" stop-color="white"/>
</linearGradient>
</defs>
</svg>
