<svg width="50" height="50" viewBox="0 0 50 50" fill="none" xmlns="http://www.w3.org/2000/svg">
<path d="M47.0979 33.3385C46.6709 33.4048 46.2511 33.467 45.8314 33.536C45.413 33.6051 44.9962 33.6824 44.5779 33.7515C44.3773 33.7847 44.1768 33.8137 43.9749 33.8358C43.4643 33.8952 42.9507 33.9463 42.4401 34.0084C41.9107 34.0733 41.3828 34.1493 40.8534 34.217C40.5779 34.2515 40.3009 34.2792 40.024 34.304C39.6186 34.3386 39.2118 34.3662 38.8051 34.3979C38.1286 34.4518 37.452 34.5057 36.7741 34.5596C36.4841 34.583 36.1942 34.6134 35.9028 34.6328C35.0013 34.6894 34.0983 34.7433 33.1967 34.7944C32.7077 34.8234 32.2202 34.8496 31.7312 34.8717C31.0777 34.9007 30.4257 34.9256 29.7723 34.9518C29.0987 34.9781 28.425 35.0168 27.7514 35.0264C25.6021 35.0568 23.4528 35.0817 21.3035 35.0996C20.4698 35.1065 19.636 35.0969 18.8037 35.0803C17.9397 35.0637 17.0742 35.0333 16.2102 35.0029C15.6188 34.9822 15.0273 34.9546 14.4374 34.9242C14.2282 34.9132 14.0191 34.8897 13.8128 34.8634C13.7652 34.8579 13.7133 34.822 13.6815 34.7861C13.2834 34.3303 12.8319 33.9435 12.2751 33.6645C11.6736 33.362 11.0303 33.2584 10.3912 33.3979C9.75078 33.5374 9.28198 33.9546 9.16081 34.6051C9.0858 35.0029 9.04397 35.4242 9.10023 35.8207C9.16225 36.2668 9.37574 36.6826 9.62384 37.079C10.1056 37.847 10.7764 38.4009 11.6159 38.7752C12.1323 39.0059 12.6862 39.0252 13.2286 38.9341C13.5604 38.8774 13.8633 38.7034 14.0883 38.4354C14.195 38.3097 14.3177 38.2006 14.5138 38.3084C14.5658 38.3374 14.648 38.3139 14.7158 38.3194C15.5163 38.3774 16.3155 38.4354 17.1146 38.4948C17.7854 38.5446 18.4561 38.6012 19.1269 38.6426C20.1582 38.7062 21.191 38.7642 22.2238 38.8125C23.0057 38.8484 23.7889 38.8857 24.5722 38.8885C26.3421 38.8926 28.112 38.8816 29.8819 38.8636C30.5902 38.8567 31.297 38.8153 32.0053 38.7877C32.5895 38.7642 33.1737 38.7393 33.7579 38.7089C34.1113 38.691 34.4632 38.6675 34.8152 38.633C34.8815 38.626 34.9508 38.5653 35.0027 38.5142C35.3662 38.1592 35.7268 37.8042 36.2029 37.5804C36.6082 37.3912 37.0265 37.2475 37.478 37.224C37.7925 37.2075 38.1156 37.1881 38.4257 37.2323C39.0301 37.318 39.685 37.771 39.923 38.3926C40.1769 39.057 39.9951 39.6482 39.6201 40.1897C39.0301 41.0419 38.2238 41.6745 37.2429 42.0751C36.777 42.2657 36.2721 42.3569 35.76 42.3182C35.3619 42.2892 34.958 42.1925 34.6868 41.9011C34.4575 41.6538 34.2122 41.6966 33.9439 41.7256C33.83 41.7381 33.716 41.7657 33.6021 41.7726C33.0799 41.8058 32.5563 41.8334 32.0341 41.8651C31.6418 41.8886 31.248 41.9176 30.8556 41.9425C30.4142 41.9701 29.9728 41.9964 29.5329 42.0212C29.0165 42.0489 28.5015 42.0751 27.9851 42.1C27.4009 42.1276 26.8152 42.1483 26.231 42.1801C26.0637 42.1897 25.9368 42.1386 25.8142 42.035C25.3829 41.6718 24.8737 41.4563 24.3255 41.2933C23.6923 41.1054 23.0461 41.0985 22.4085 41.1676C21.6829 41.2463 21.028 41.5171 20.5376 42.0834C20.1077 42.5807 20.1236 43.4122 20.4611 43.9177C20.842 44.4882 21.3973 44.8225 22.0233 45.0752C22.6955 45.3474 23.4023 45.4468 24.125 45.3833C24.7727 45.3253 25.3901 45.1554 25.9209 44.7645C25.9829 44.7189 26.0753 44.6954 26.156 44.6912C26.8152 44.6553 27.4759 44.636 28.1351 44.5932C28.7525 44.5531 29.367 44.4951 29.9829 44.4385C30.5022 44.3901 31.0215 44.339 31.5393 44.2782C32.1711 44.205 32.8029 44.1277 33.4333 44.042C33.954 43.9716 34.4748 43.8956 34.9926 43.8086C35.522 43.7188 36.0485 43.6097 36.5779 43.513C37.0539 43.426 37.5328 43.3542 38.0074 43.2589C38.4199 43.176 38.8253 43.0655 39.2349 42.9716C39.6201 42.8832 40.0052 42.7851 40.3947 42.7215C40.8779 42.6414 41.2299 42.3859 41.5689 42.0627C42.0593 41.5972 42.6637 41.2878 43.3171 41.0833C43.5321 41.0157 43.7845 40.9853 44.0009 41.1068C44.2129 41.227 44.2807 41.5917 44.1509 41.8513C43.8306 42.4895 43.3243 42.984 42.7661 43.4274C42.4012 43.7161 42.0218 43.9923 41.6251 44.2396C41.2688 44.4606 40.8837 44.6429 40.4351 44.607C40.3629 44.6015 40.2951 44.5545 40.2216 44.5365C40.1624 44.5213 40.0946 44.5048 40.0369 44.5172C39.5797 44.6167 39.1253 44.7285 38.668 44.8252C38.3536 44.8915 38.0334 44.9385 37.7174 45.002C37.3828 45.0683 37.0496 45.1443 36.7149 45.212C36.5505 45.2451 36.3832 45.2741 36.2173 45.299C35.8033 45.3584 35.3879 45.4109 34.9753 45.4744C34.5354 45.5407 34.0983 45.6181 33.6598 45.6844C33.4319 45.7189 33.204 45.7465 32.9746 45.7686C32.6241 45.8032 32.2721 45.8322 31.9201 45.8612C31.2436 45.9164 30.5671 45.9717 29.8906 46.0256C29.5458 46.0532 29.2011 46.085 28.8549 46.1002C28.0918 46.1319 27.3302 46.1609 26.5671 46.1789C25.5314 46.2037 24.4957 46.23 23.46 46.2286C22.7388 46.2286 22.0161 46.1844 21.2949 46.154C20.8665 46.1361 20.4395 46.1084 20.0125 46.0767C19.3836 46.0311 18.7533 45.9814 18.1258 45.9247C17.6397 45.8805 17.1564 45.8253 16.6718 45.7714C16.4338 45.7452 16.2448 45.6236 16.0515 45.4938C15.5149 45.1346 14.9379 44.8446 14.3032 44.6761C13.9945 44.5946 13.6844 44.4992 13.3671 44.4633C13.1608 44.4398 12.9343 44.4868 12.7309 44.5462C12.5174 44.6084 12.4396 44.9274 12.5535 45.136C12.7511 45.4965 13.0512 45.77 13.3815 46.0131C13.8705 46.3723 14.4042 46.6582 14.9754 46.8875C15.5236 47.1085 16.0789 47.2825 16.6804 47.2687C16.8319 47.2646 16.9862 47.1886 17.1334 47.1996C17.455 47.2245 17.7753 47.2867 18.0955 47.3323C18.309 47.3626 18.5239 47.3958 18.7388 47.4179C19.0836 47.4538 19.4283 47.4828 19.7731 47.5104C20.539 47.5712 21.3035 47.6306 22.0695 47.6845C22.5239 47.7162 22.9768 47.7494 23.4326 47.7604C24.6328 47.7881 25.8315 47.8185 27.0316 47.8171C27.8971 47.8171 28.7626 47.777 29.6266 47.7328C30.2916 47.6997 30.9551 47.6375 31.6172 47.5781C32.1163 47.5339 32.6154 47.4814 33.1116 47.4207C33.7016 47.3488 34.2872 47.2452 34.8801 47.1914C35.4268 47.1416 35.8624 46.8709 36.3168 46.6223C36.8332 46.3391 37.3914 46.1513 37.9684 46.0104C38.1776 45.9593 38.3882 45.9054 38.6017 45.8874C38.7373 45.8764 38.8844 45.9123 39.0157 45.9565C39.1267 45.9924 39.1484 46.2093 39.0272 46.3142C38.7906 46.5187 38.5454 46.7259 38.2699 46.8764C37.6742 47.2024 37.0741 47.5284 36.4452 47.7853C35.9533 47.987 35.4369 48.1665 34.8729 48.1375C34.6479 48.1265 34.4185 48.1873 34.192 48.2273C33.9742 48.266 33.7607 48.3295 33.5415 48.3627C33.1073 48.4276 32.6702 48.4815 32.2332 48.5353C31.5682 48.6168 30.9032 48.7039 30.2368 48.7702C29.5949 48.8351 28.9515 48.8848 28.3082 48.9249C27.7038 48.9622 27.0994 48.987 26.4936 49.0036C25.6021 49.0285 24.7092 49.0547 23.8178 49.0533C23.1586 49.0519 22.4965 49.0257 21.8401 48.9691C21.5747 48.9456 21.3223 48.8075 21.0598 48.7301C20.7309 48.632 20.402 48.5284 20.0673 48.4538C19.675 48.3654 19.2783 48.277 18.8788 48.2439C18.547 48.2163 18.208 48.2563 17.8733 48.2853C17.7075 48.2991 17.7147 48.4027 17.8387 48.4704C18.0868 48.6058 18.3465 48.7218 18.6004 48.8461C18.6205 48.8558 18.6436 48.8627 18.6638 48.871L18.6465 48.929C18.4936 48.8959 18.3364 48.8738 18.1878 48.8268C17.8243 48.7094 17.4622 48.5865 17.1045 48.4538C16.5347 48.2439 15.9563 48.0519 15.4053 47.8033C14.6682 47.4718 13.9368 47.1223 13.2344 46.73C12.4496 46.2935 11.6924 45.8101 10.9351 45.328C10.0176 44.7437 9.17091 44.0724 8.3761 43.3431C7.76305 42.7809 7.16731 42.2022 6.59176 41.6068C5.69455 40.6786 4.90263 39.6675 4.18428 38.6081C3.51785 37.6274 2.91202 36.6094 2.41869 35.5347C2.15183 34.9532 1.86911 34.3758 1.6311 33.7833C1.4306 33.286 1.27625 32.7708 1.11037 32.2597C0.97189 31.8329 0.833413 31.4061 0.7209 30.9724C0.612714 30.5552 0.534821 30.1312 0.454042 29.7071C0.345857 29.1422 0.243441 28.5759 0.14968 28.0082C0.107849 27.7512 0.0717868 27.4916 0.0645744 27.2333C0.035725 26.0605 -0.00322181 24.8782 -0.000336859 23.6972C0.00110561 23.1336 0.0789992 22.5701 0.146795 22.0093C0.198724 21.5866 0.2896 21.1681 0.364609 20.7481C0.425193 20.4042 0.477122 20.0589 0.550688 19.7177C0.609829 19.4428 0.693493 19.1721 0.767059 18.9C0.85505 18.5782 0.941598 18.2549 1.03392 17.9345C1.11902 17.6403 1.20124 17.3433 1.30654 17.0546C1.45079 16.6527 1.60369 16.2535 1.77391 15.8612C2.04942 15.2299 2.31339 14.5932 2.63506 13.984C3.02886 13.2381 3.45727 12.5074 3.90877 11.7919C4.26217 11.2311 4.64443 10.6828 5.0613 10.1634C5.63685 9.44652 6.22105 8.72963 6.86728 8.07214C7.62602 7.29863 8.42371 6.55412 9.26034 5.85933C10.2874 5.00708 11.3865 4.23633 12.5751 3.59265C13.282 3.21004 13.9801 2.81085 14.7057 2.46553C15.3952 2.13817 16.1164 1.8702 16.8261 1.58013C16.8809 1.55803 16.9502 1.56908 17.0612 1.56217C16.8636 1.73483 16.5809 1.74312 16.5347 2.02628C16.917 2.05805 17.2776 2.07601 17.6397 1.98346C17.9181 1.91164 18.208 1.87572 18.4864 1.80251C18.8773 1.7003 19.2725 1.60085 19.649 1.45858C20.0414 1.3094 20.4164 1.16574 20.8549 1.15608C21.6151 1.1395 22.3724 1.04281 23.1326 1.0138C24.2361 0.970984 25.341 0.951646 26.446 0.935071C27.0201 0.926783 27.5942 0.940596 28.1668 0.959934C28.6429 0.975128 29.1174 1.00413 29.592 1.03867C30.1401 1.07872 30.6883 1.12292 31.2335 1.1837C31.7644 1.2431 32.2923 1.32459 32.8217 1.39642C32.8823 1.40471 32.9472 1.41299 33.0049 1.40194C33.6886 1.28039 34.3233 1.4793 34.9392 1.71135C35.5076 1.92545 36.06 2.1796 36.6082 2.4379C36.8433 2.54841 37.0626 2.70035 37.2602 2.8661C37.3539 2.94345 37.4362 3.10506 37.4203 3.21418C37.3972 3.37303 37.227 3.44071 37.0539 3.45314C36.4726 3.49458 35.9172 3.39237 35.359 3.23628C34.8008 3.07882 34.2613 2.88958 33.7752 2.58708C33.5646 2.45586 33.3482 2.43652 33.1131 2.42133C32.3601 2.37436 31.6086 2.30944 30.857 2.25419C30.4719 2.22519 30.0853 2.19618 29.6987 2.17822C28.9847 2.14645 28.2693 2.12159 27.5538 2.09811C26.9624 2.07739 26.371 2.04424 25.7795 2.04976C25.0107 2.05667 24.2419 2.08568 23.473 2.1285C22.8355 2.16303 22.1993 2.22104 21.5632 2.28596C20.9242 2.35226 20.2866 2.43514 19.649 2.5194C19.1139 2.59122 18.5802 2.6672 18.0479 2.75698C17.5113 2.84676 16.9776 2.96003 16.441 3.05119C15.8827 3.1465 15.3259 3.22661 14.7504 3.21418C14.2325 3.20313 13.7796 3.46005 13.3281 3.68105C12.6458 4.01394 12.001 4.4007 11.4789 4.94216C11.2957 5.13278 11.1514 5.36483 11.0303 5.59827C10.912 5.8248 11.0706 6.02094 11.349 6.04304C11.7284 6.07343 12.0804 5.96017 12.4309 5.84552C13.1593 5.60518 13.7955 5.21151 14.4215 4.79022C14.6278 4.65071 14.9192 4.61756 15.1774 4.56093C15.5769 4.47253 15.9794 4.4007 16.3833 4.33026C16.7554 4.26672 17.129 4.21837 17.5012 4.15621C17.9195 4.08715 18.3364 4.00842 18.7547 3.93797C18.9408 3.9062 19.1283 3.87858 19.3158 3.85786C19.8813 3.79708 20.4482 3.73492 21.0151 3.68244C21.6497 3.62442 22.2844 3.57055 22.9206 3.52359C23.3605 3.49044 23.8019 3.46143 24.2433 3.44762C25.279 3.41585 26.3147 3.39375 27.349 3.36612C27.9274 3.35093 28.5073 3.34402 29.0842 3.30535C29.2588 3.29291 29.4276 3.18932 29.5978 3.12164C30.1026 2.91997 30.6205 2.85367 31.16 2.96279C31.4687 3.02633 31.7846 3.0581 32.0875 3.13683C32.6371 3.2791 33.1419 3.51806 33.6122 3.83023C33.9757 4.07196 34.3276 4.32611 34.5036 4.72806C34.7214 5.22532 34.5584 5.6038 34.1733 5.88281C33.6612 6.253 33.0727 6.37179 32.4394 6.36626C31.4932 6.35797 30.5801 6.21985 29.8214 5.64385C29.4939 5.39522 29.1708 5.32478 28.7756 5.32754C26.9508 5.33997 25.1275 5.32201 23.3028 5.3455C22.9581 5.34964 22.6926 5.2419 22.4157 5.09134C22.0233 4.87724 21.5935 4.79298 21.1449 4.78055C19.9938 4.74878 18.9754 5.07891 18.0724 5.76955C17.5993 6.13144 17.2632 6.57484 17.1305 7.13149C17.0252 7.57074 17.1665 7.97822 17.4868 8.32077C17.8156 8.67438 18.2325 8.86362 18.7114 8.96169C19.2451 9.06943 19.7702 9.04871 20.3054 8.96721C21.1824 8.83323 21.9281 8.45614 22.5931 7.90777C22.6321 7.87462 22.697 7.85252 22.7489 7.85252C23.4932 7.85528 24.2375 7.85528 24.9819 7.87186C25.5473 7.88429 26.1113 7.91882 26.6753 7.94783C27.1167 7.96993 27.5581 7.99755 27.9995 8.02518C28.3385 8.0459 28.6775 8.06662 29.015 8.09424C29.6641 8.14535 30.3147 8.19784 30.9638 8.25447C31.4903 8.30143 32.0168 8.35392 32.5433 8.40779C33.0424 8.4589 33.54 8.51139 34.0377 8.56802C34.4618 8.61637 34.8844 8.66333 35.3071 8.72273C35.962 8.81389 36.6154 8.91887 37.2703 9.01279C37.5371 9.05147 37.8083 9.06943 38.0752 9.11086C38.4805 9.1744 38.8844 9.25037 39.2897 9.31944C39.4758 9.35121 39.6619 9.38021 39.848 9.41613C40.3759 9.51558 40.9039 9.61503 41.4304 9.72139C41.804 9.79598 42.1732 9.88853 42.5483 9.95897C42.6074 9.97002 42.6997 9.92444 42.743 9.87747C43.0503 9.54597 43.2551 9.51282 43.7023 9.63299C44.4812 9.84432 45.0077 10.3664 45.4895 10.9342C45.8025 11.303 46.0723 11.7077 46.3305 12.1151C46.6074 12.553 46.6882 13.042 46.6262 13.5489C46.5742 13.9702 46.2078 14.3404 45.7693 14.3473C45.5328 14.3514 45.2875 14.252 45.0582 14.1705C44.4278 13.9453 43.9807 13.4964 43.6143 12.984C43.47 12.7823 43.2796 12.763 43.0907 12.7284C42.5872 12.6359 42.0795 12.5654 41.5717 12.4964C41.2832 12.4563 40.9919 12.4356 40.7019 12.4038C40.0427 12.3306 39.3835 12.2547 38.7243 12.1787C38.7041 12.1759 38.6839 12.1759 38.6637 12.1745C38.1617 12.1442 37.6597 12.1138 37.1578 12.082C36.2894 12.0267 35.421 11.966 34.5527 11.9135C34.0089 11.8803 33.465 11.8568 32.9212 11.8347C32.1596 11.8044 31.398 11.7795 30.6363 11.756C29.8949 11.7325 29.1535 11.6994 28.4106 11.6925C26.9278 11.6787 25.4449 11.6773 23.962 11.6787C22.821 11.6787 21.68 11.687 20.539 11.7063C19.7976 11.7187 19.0562 11.7533 18.3147 11.7836C17.7911 11.8044 17.2675 11.8334 16.7439 11.8624C16.3227 11.8859 15.9029 11.9107 15.4817 11.9411C14.798 11.9908 14.1143 12.0406 13.4305 12.1C12.904 12.1455 12.3775 12.1966 11.8525 12.256C11.2207 12.3292 10.5917 12.4135 9.96138 12.495C9.91522 12.5005 9.87339 12.5295 9.82723 12.5378C9.67 12.5682 9.53008 12.6014 9.41613 12.419C9.25024 12.1552 8.98916 12.0226 8.65739 11.9936C8.12944 11.948 7.6866 12.1414 7.28127 12.4246C6.50377 12.9688 5.98016 13.7078 5.64262 14.56C5.45942 15.0241 5.32095 15.5145 5.38874 16.0186C5.45798 16.5256 5.5979 17.0353 6.18066 17.2148C6.43598 17.2936 6.75332 17.3019 7.01152 17.2342C7.802 17.027 8.3487 16.4938 8.82616 15.8819C8.89539 15.7935 9.04974 15.7327 9.17091 15.7175C9.79117 15.6471 10.4129 15.5946 11.0346 15.538C11.6217 15.4841 12.2088 15.4288 12.7973 15.3833C13.5214 15.3252 14.2455 15.2755 14.9711 15.2244C15.3707 15.1968 15.7702 15.1705 16.1712 15.1471C16.6747 15.118 17.1766 15.0932 17.6801 15.0683C18.2296 15.0407 18.7792 15.0131 19.3302 14.991C20.0515 14.962 20.7713 14.9371 21.4925 14.9109C22.2412 14.8846 22.9898 14.8459 23.7384 14.8349C25.9151 14.8045 28.0918 14.7796 30.2685 14.7631C31.1427 14.7562 32.0182 14.7658 32.8924 14.7824C33.7232 14.7976 34.5541 14.8294 35.385 14.8597C35.8812 14.8777 36.3774 14.8998 36.8722 14.9371C37.0871 14.9537 37.2328 14.9026 37.3684 14.7299C37.5804 14.4578 37.8328 14.2244 38.1863 14.1056C38.5945 13.9674 39.0113 13.9412 39.4268 14.0103C40.4538 14.1802 41.1693 14.8086 41.8011 15.5449C42.179 15.9855 42.4459 16.4869 42.5959 17.0353C42.9262 18.2466 42.2742 19.6901 41.0106 20.1915C40.5461 20.3752 40.0874 20.36 39.6042 20.284C39.1441 20.2108 38.7214 20.0658 38.3795 19.7785C38.0896 19.5354 37.8617 19.226 37.5934 18.9594C37.5242 18.8903 37.4044 18.8392 37.3049 18.8337C36.7899 18.8019 36.2735 18.7784 35.7571 18.7674C34.2368 18.7315 32.7178 18.6859 31.1975 18.6748C27.6259 18.6472 24.0558 18.6279 20.4842 18.6237C19.2033 18.6224 17.9224 18.6693 16.64 18.6997C16.4684 18.7038 16.3789 18.6431 16.2664 18.5119C15.9289 18.1154 15.5034 17.8212 14.9841 17.6637C14.6465 17.5615 14.3061 17.4883 13.9513 17.5159C13.4046 17.5574 12.8968 17.7218 12.4367 18.0035C11.8409 18.3668 11.3894 18.8599 11.0793 19.4663C10.8918 19.8337 10.7374 20.2122 10.7043 20.628C10.6855 20.8531 10.6321 21.0797 10.6422 21.3034C10.6869 22.3283 11.0779 23.1999 11.9549 23.8256C12.2924 24.066 12.6776 24.2096 13.1016 24.2815C14.0883 24.4458 14.9105 24.1295 15.6404 23.5287C15.8438 23.3615 16.0111 23.1516 16.2044 22.972C16.2635 22.9168 16.353 22.867 16.4338 22.8587C16.617 22.8408 16.8016 22.8477 16.9862 22.8477C21.2127 22.8256 25.4406 22.8021 29.667 22.7828C30.8152 22.7772 31.9634 22.7883 33.1102 22.7966C33.2645 22.7966 33.4203 22.8284 33.5747 22.8477C33.7651 22.8698 33.8949 22.8076 34.0103 22.6502C34.2526 22.32 34.5267 22.0065 34.909 21.8186C35.1643 21.6943 35.434 21.5811 35.7124 21.523C36.0269 21.4581 36.3572 21.4443 36.6803 21.4388C37.2039 21.4291 37.6655 21.6253 38.0968 21.8877C38.8209 22.3297 39.3547 22.9319 39.7052 23.6806C39.9619 24.229 40.0744 24.816 39.9706 25.4058C39.7932 26.4169 39.2595 27.2471 38.4098 27.8742C37.9295 28.2292 37.403 28.4847 36.7726 28.522C36.0312 28.5676 35.3302 28.4792 34.7315 28.033C34.4791 27.8452 34.2728 27.5951 34.0593 27.3603C33.9396 27.2291 33.8314 27.1435 33.628 27.1462C32.3168 27.1628 31.0042 27.1628 29.693 27.1739C29.5689 27.1739 29.4867 27.1448 29.4059 27.0495C28.9342 26.5026 28.3572 26.0826 27.6519 25.8616C27.0157 25.6627 26.3637 25.6185 25.6916 25.7401C25.0973 25.8492 24.5679 26.073 24.0904 26.4072C23.4802 26.8354 23.0504 27.4087 22.7951 28.0827C22.5585 28.7071 22.534 29.3549 22.6681 30.0151C22.847 30.9005 23.3475 31.576 24.0644 32.1257C24.4626 32.4296 24.9083 32.652 25.4074 32.7501C25.742 32.8164 26.0853 32.8896 26.4243 32.8882C27.2451 32.8841 28.0024 32.6465 28.663 32.1782C28.9241 31.9931 29.1391 31.75 29.3843 31.5456C29.4578 31.4848 29.5617 31.4282 29.6555 31.4227C30.0161 31.4047 30.3796 31.4144 30.7416 31.402C31.3533 31.3812 31.9649 31.3522 32.5765 31.3232C33.0655 31.2997 33.5545 31.2721 34.0435 31.2459C34.5123 31.2196 34.9796 31.1948 35.4484 31.1658C35.8624 31.1409 36.2764 31.1146 36.689 31.087C37.0756 31.0622 37.4621 31.0373 37.8473 31.0083C38.5584 30.9572 39.2696 30.9061 39.9807 30.8508C40.6298 30.8011 41.2789 30.7486 41.9266 30.6934C42.5079 30.6436 43.0892 30.5911 43.6705 30.5359C44.1898 30.4862 44.7091 30.4337 45.2284 30.3784C45.7001 30.3287 46.1703 30.2776 46.6406 30.2182C46.9348 30.1809 47.2277 30.1353 47.5176 30.0718C47.5883 30.0566 47.6561 29.9682 47.6965 29.8977C47.8782 29.5773 48.047 29.2444 48.3557 29.0179C48.5187 28.8991 48.712 28.7913 48.9082 28.7499C49.2688 28.6725 49.5919 28.877 49.7433 29.2237C49.9496 29.6975 50.0434 30.1947 49.9799 30.7016C49.8746 31.5539 49.5544 32.3398 49.0639 33.0553C48.8533 33.3634 48.6442 33.6797 48.2879 33.8689C47.8292 34.1106 47.3835 34.072 47.1959 33.5153C47.1743 33.4504 47.1281 33.3924 47.095 33.3344L47.0979 33.3385ZM35.1325 24.961C35.1412 25.1102 35.1426 25.2345 35.1585 25.3575C35.1672 25.4196 35.2075 25.4763 35.2263 25.5384C35.4456 26.2898 36.3154 26.8548 37.1967 26.5468C37.7982 26.3354 38.1415 25.9003 38.2569 25.3257C38.3565 24.8298 38.2728 24.3395 37.9295 23.9223C37.5011 23.4016 36.7683 23.1516 36.1163 23.4499C35.4398 23.7607 35.1398 24.2856 35.134 24.961H35.1325ZM41.2371 17.3557C41.2154 17.2646 41.1823 17.1278 41.1505 16.9911C41.0265 16.4786 40.7236 16.0905 40.2533 15.8239C39.7744 15.5518 39.2955 15.5532 38.9075 15.8418C38.3521 16.2535 38.3536 16.9082 38.5512 17.4096C38.7156 17.8281 38.9926 18.1734 39.4181 18.3972C39.7946 18.5947 40.1682 18.6721 40.5764 18.4801C41.0467 18.2591 41.1909 17.8654 41.2371 17.3557ZM36.7395 41.0184C36.875 41.006 37.0222 41.0212 37.1448 40.9756C37.7723 40.7463 38.2815 40.3817 38.4863 39.738C38.5671 39.4852 38.5656 39.2131 38.3608 38.9921C38.0838 38.691 37.7521 38.6164 37.3338 38.6965C36.7063 38.8167 36.2519 39.1454 35.9317 39.6523C35.7817 39.8899 35.6648 40.151 35.7672 40.4493C35.9245 40.9038 36.2764 41.0433 36.7395 41.0184ZM31.3374 3.74736C31.059 3.74736 30.7849 3.75979 30.544 3.92278C30.3724 4.03881 30.2483 4.29158 30.3479 4.42971C30.482 4.61618 30.6291 4.81647 30.8224 4.9394C31.3201 5.25433 31.8697 5.38693 32.4755 5.27091C32.7669 5.21566 32.9948 5.09687 33.0741 4.82475C33.1376 4.60651 32.9717 4.44766 32.8203 4.30263C32.4106 3.91173 31.9057 3.75288 31.3374 3.74597V3.74736ZM45.6669 12.4618C45.6597 12.3997 45.6712 12.2933 45.6337 12.2063C45.3986 11.6566 45.0611 11.1855 44.5014 10.8886C44.2129 10.7352 43.8682 10.8112 43.7931 11.082C43.7571 11.2132 43.7989 11.3748 43.8379 11.5143C44.0124 12.1317 44.3716 12.6207 44.9817 12.908C45.1087 12.9674 45.2803 13.0171 45.4058 12.984C45.6467 12.9204 45.6857 12.8044 45.6669 12.4605V12.4618ZM47.9547 31.8978C47.9547 31.9835 47.9403 32.0705 47.9576 32.152C47.9922 32.3219 48.0412 32.5097 48.2215 32.5788C48.4134 32.652 48.6052 32.5719 48.7206 32.4144C48.8779 32.1989 49.0452 31.9766 49.1361 31.7321C49.2803 31.3426 49.4303 30.9447 49.2745 30.511C49.2197 30.3577 49.1678 30.2113 49.0034 30.1643C48.8014 30.1077 48.6514 30.2486 48.5389 30.3701C48.1393 30.8025 47.9806 31.3301 47.9561 31.8978H47.9547ZM43.2436 42.2781C43.1772 42.198 43.1397 42.1069 43.0878 42.0986C42.9781 42.0806 42.8483 42.0792 42.7474 42.1179C42.2483 42.3099 41.8415 42.6276 41.5256 43.0392C41.416 43.1829 41.3438 43.3625 41.2962 43.5365C41.2616 43.665 41.3842 43.7382 41.5097 43.7257C41.628 43.7133 41.7477 43.6746 41.8545 43.6221C42.3031 43.4053 42.6709 43.0903 42.9796 42.716C43.0834 42.5903 43.1512 42.437 43.245 42.2781H43.2436ZM34.0795 1.89092C34.042 2.14922 34.2483 2.20861 34.4055 2.3053C34.8844 2.59813 35.4066 2.77632 35.9749 2.81361C36.0528 2.81914 36.1351 2.75007 36.2158 2.71554C36.1754 2.64786 36.1524 2.55393 36.0918 2.51802C35.8321 2.36193 35.5739 2.19618 35.2941 2.08291C34.9162 1.92959 34.5224 1.8108 34.0795 1.89092ZM35.9605 47.5809C36.2678 47.632 36.5375 47.5533 36.7871 47.4303C37.1534 47.248 37.5097 47.0449 37.8603 46.8378C37.9122 46.8074 37.9136 46.701 37.9396 46.6292C37.866 46.6126 37.7852 46.5698 37.7218 46.585C37.2371 46.7038 36.7712 46.8737 36.3529 47.1361C36.1913 47.2383 35.9836 47.3378 35.9605 47.5809Z" fill="white"/>
<path d="M20.6299 49.4122C20.7337 49.4122 20.8376 49.4026 20.94 49.4136C21.328 49.4537 21.7146 49.5186 22.1041 49.5421C22.8585 49.589 23.6129 49.6291 24.3688 49.6484C25.5213 49.6774 26.6738 49.6954 27.8249 49.6982C28.3197 49.6982 28.8173 49.6691 29.3107 49.618C29.6136 49.5863 29.9093 49.4882 30.2108 49.4233C30.505 49.3597 30.8007 49.2976 31.0964 49.2423C31.5191 49.1636 31.9432 49.0849 32.3687 49.0199C32.6601 48.9757 32.9558 48.9578 33.3049 48.9219C33.1462 49.1222 32.9443 49.1028 32.7813 49.1581C32.2677 49.3335 31.7153 49.2934 31.1917 49.4081C30.8743 49.4772 30.5699 49.6001 30.254 49.6774C30.0463 49.7285 29.8285 49.7506 29.6136 49.7741C29.276 49.81 28.9385 49.8446 28.5995 49.8653C28.0297 49.8998 27.4585 49.9261 26.8873 49.9523C26.4603 49.9717 26.0319 50.0034 25.6049 49.9993C25.116 49.9951 24.6255 49.9675 24.138 49.9302C23.6172 49.8902 23.0979 49.839 22.5801 49.7727C22.0868 49.7092 21.5949 49.6236 21.1044 49.5421C20.9443 49.5158 20.7871 49.4702 20.6284 49.4343V49.4108L20.6299 49.4122Z" fill="white"/>
<path d="M20.0059 0.650632C20.3246 0.588474 20.6449 0.527698 20.9637 0.466922C21.3459 0.393714 21.7282 0.319125 22.1133 0.251442C22.3268 0.214147 22.5417 0.189284 22.7567 0.16304C22.9788 0.135415 23.2009 0.100883 23.4245 0.0898323C24.2006 0.0525377 24.9752 0.00557423 25.7527 4.91101e-05C26.0989 -0.00271345 26.4436 0.111933 26.7913 0.127127C27.1245 0.142321 27.4606 0.0967387 27.7967 0.0787821C27.902 0.0732569 28.0087 0.0649693 28.114 0.0704944C28.4371 0.088451 28.7602 0.111933 29.0833 0.132652L29.0949 0.20586C29.0098 0.239011 28.9247 0.295643 28.8381 0.299787C28.2885 0.330175 27.7375 0.363326 27.1865 0.366088C26.7523 0.368851 26.3124 0.359182 25.8839 0.299787C25.3142 0.222435 24.7458 0.203097 24.1746 0.241773C23.5861 0.28183 22.999 0.339844 22.4133 0.402002C22.0239 0.442059 21.6373 0.500072 21.2493 0.553942C20.9564 0.594 20.6636 0.642344 20.3708 0.68102C20.2525 0.696214 20.1314 0.694833 20.0116 0.701739L20.0073 0.649251L20.0059 0.650632Z" fill="white"/>
</svg>
