<svg width="416" height="141" viewBox="0 0 416 141" fill="none" xmlns="http://www.w3.org/2000/svg">
<path d="M26.1325 36.4224V103H5.25649V36.4224H26.1325Z" fill="white"/>
<path d="M139.286 85.9376C138.527 86.0603 137.781 86.1754 137.035 86.3033C136.291 86.4311 135.55 86.5743 134.806 86.7022C134.45 86.7636 134.093 86.8173 133.734 86.8582C132.826 86.9682 131.914 87.0628 131.006 87.1778C130.065 87.298 129.126 87.4387 128.185 87.564C127.695 87.6279 127.203 87.6791 126.71 87.7251C125.99 87.789 125.266 87.8402 124.543 87.899C123.341 87.9987 122.138 88.0984 120.933 88.1982C120.417 88.2416 119.902 88.2979 119.384 88.3337C117.781 88.4386 116.176 88.5383 114.573 88.6329C113.703 88.6866 112.837 88.7352 111.967 88.7761C110.806 88.8298 109.647 88.8758 108.485 88.9244C107.287 88.973 106.09 89.0446 104.892 89.0625C101.071 89.1188 97.2501 89.1648 93.4291 89.1981C91.9468 89.2108 90.4646 89.1929 88.9849 89.1623C87.4488 89.1316 85.9101 89.0753 84.3741 89.0191C83.3226 88.9807 82.2712 88.9295 81.2224 88.8733C80.8505 88.8528 80.4787 88.8094 80.112 88.7608C80.0273 88.7505 79.935 88.6841 79.8786 88.6176C79.1708 87.7737 78.3682 87.0577 77.3783 86.5411C76.3089 85.9811 75.1652 85.7893 74.0291 86.0475C72.8905 86.3058 72.0571 87.0781 71.8417 88.2826C71.7083 89.0191 71.634 89.799 71.734 90.5329C71.8442 91.3589 72.2238 92.1287 72.6649 92.8626C73.5214 94.2844 74.7138 95.3099 76.2063 96.0029C77.1244 96.4299 78.1091 96.4657 79.0734 96.2969C79.6632 96.1921 80.2017 95.8699 80.6018 95.3738C80.7915 95.1411 81.0095 94.939 81.3583 95.1385C81.4506 95.1922 81.5968 95.1488 81.7173 95.159C83.1406 95.2664 84.5613 95.3738 85.982 95.4837C87.1744 95.5758 88.3669 95.6807 89.5593 95.7574C91.3929 95.875 93.229 95.9824 95.0652 96.0719C96.4551 96.1384 97.8476 96.2074 99.2401 96.2126C102.387 96.2202 105.533 96.1998 108.68 96.1665C109.939 96.1537 111.195 96.077 112.455 96.0259C113.493 95.9824 114.532 95.9364 115.57 95.8801C116.199 95.8469 116.824 95.8034 117.45 95.7395C117.568 95.7267 117.691 95.6142 117.783 95.5195C118.43 94.8623 119.071 94.2051 119.917 93.7909C120.638 93.4405 121.381 93.1746 122.184 93.1311C122.743 93.1004 123.318 93.0646 123.869 93.1464C124.943 93.305 126.108 94.1438 126.531 95.2945C126.982 96.5245 126.659 97.619 125.992 98.6215C124.943 100.199 123.51 101.37 121.766 102.112C120.938 102.465 120.04 102.634 119.13 102.562C118.422 102.508 117.704 102.329 117.222 101.79C116.814 101.332 116.378 101.411 115.901 101.465C115.699 101.488 115.496 101.539 115.293 101.552C114.365 101.613 113.434 101.665 112.506 101.723C111.808 101.767 111.108 101.821 110.411 101.867C109.626 101.918 108.841 101.966 108.059 102.012C107.141 102.064 106.226 102.112 105.308 102.158C104.269 102.209 103.228 102.248 102.189 102.306C101.892 102.324 101.666 102.23 101.448 102.038C100.681 101.365 99.776 100.966 98.8016 100.665C97.6758 100.317 96.5269 100.304 95.3934 100.432C94.1035 100.578 92.9393 101.079 92.0674 102.127C91.3032 103.048 91.3314 104.588 91.9314 105.523C92.6085 106.58 93.5958 107.198 94.7087 107.666C95.9037 108.17 97.1603 108.354 98.4451 108.237C99.5965 108.129 100.694 107.815 101.638 107.091C101.748 107.007 101.912 106.963 102.056 106.955C103.228 106.889 104.402 106.853 105.574 106.774C106.672 106.7 107.764 106.592 108.859 106.488C109.782 106.398 110.706 106.303 111.626 106.191C112.75 106.055 113.873 105.912 114.993 105.754C115.919 105.623 116.845 105.483 117.766 105.321C118.707 105.155 119.643 104.953 120.584 104.774C121.43 104.613 122.281 104.48 123.125 104.304C123.859 104.15 124.579 103.946 125.308 103.772C125.992 103.608 126.677 103.427 127.369 103.309C128.228 103.161 128.854 102.687 129.457 102.089C130.329 101.227 131.403 100.654 132.565 100.276C132.947 100.151 133.396 100.094 133.78 100.319C134.157 100.542 134.278 101.217 134.047 101.698C133.478 102.879 132.578 103.795 131.585 104.616C130.936 105.15 130.262 105.662 129.557 106.119C128.923 106.528 128.239 106.866 127.441 106.8C127.313 106.789 127.192 106.702 127.062 106.669C126.956 106.641 126.836 106.61 126.733 106.633C125.92 106.817 125.113 107.025 124.3 107.204C123.741 107.326 123.171 107.413 122.61 107.531C122.015 107.654 121.422 107.794 120.827 107.92C120.535 107.981 120.238 108.035 119.943 108.081C119.207 108.191 118.468 108.288 117.735 108.405C116.953 108.528 116.176 108.671 115.396 108.794C114.991 108.858 114.586 108.909 114.178 108.95C113.555 109.014 112.929 109.068 112.303 109.121C111.101 109.224 109.898 109.326 108.695 109.426C108.082 109.477 107.469 109.536 106.854 109.564C105.497 109.623 104.143 109.676 102.787 109.71C100.945 109.756 99.1042 109.804 97.2629 109.802C95.9807 109.802 94.6959 109.72 93.4137 109.664C92.652 109.63 91.893 109.579 91.1339 109.52C90.0158 109.436 88.8951 109.344 87.7796 109.239C86.9154 109.157 86.0563 109.055 85.1947 108.955C84.7715 108.907 84.4356 108.682 84.092 108.441C83.138 107.776 82.1122 107.239 80.9839 106.927C80.4351 106.776 79.8837 106.6 79.3196 106.534C78.9528 106.49 78.5502 106.577 78.1886 106.687C77.8091 106.802 77.6706 107.393 77.8732 107.779C78.2245 108.446 78.7579 108.953 79.3452 109.403C80.2145 110.068 81.1634 110.597 82.1789 111.022C83.1534 111.431 84.1407 111.753 85.2101 111.727C85.4793 111.72 85.7537 111.579 86.0153 111.599C86.5872 111.645 87.1565 111.761 87.7258 111.845C88.1053 111.901 88.4874 111.963 88.8695 112.003C89.4824 112.07 90.0953 112.124 90.7082 112.175C92.0699 112.287 93.4291 112.397 94.7908 112.497C95.5986 112.556 96.4038 112.617 97.2142 112.638C99.3478 112.689 101.479 112.745 103.612 112.743C105.151 112.743 106.69 112.668 108.226 112.587C109.408 112.525 110.588 112.41 111.765 112.3C112.652 112.218 113.539 112.121 114.422 112.009C115.47 111.876 116.512 111.684 117.566 111.584C118.537 111.492 119.312 110.991 120.12 110.531C121.038 110.006 122.03 109.659 123.056 109.398C123.428 109.303 123.802 109.203 124.182 109.17C124.423 109.15 124.684 109.216 124.918 109.298C125.115 109.364 125.154 109.766 124.938 109.96C124.518 110.339 124.082 110.722 123.592 111.001C122.533 111.605 121.466 112.208 120.348 112.684C119.473 113.057 118.555 113.39 117.553 113.336C117.153 113.315 116.745 113.428 116.342 113.502C115.955 113.574 115.576 113.691 115.186 113.753C114.414 113.873 113.637 113.973 112.86 114.072C111.678 114.223 110.495 114.384 109.311 114.507C108.169 114.627 107.026 114.719 105.882 114.793C104.807 114.862 103.733 114.908 102.656 114.939C101.071 114.985 99.4837 115.034 97.8989 115.031C96.7269 115.029 95.5499 114.98 94.383 114.875C93.9112 114.832 93.4624 114.576 92.9957 114.433C92.411 114.251 91.8263 114.06 91.2313 113.921C90.5338 113.758 89.8286 113.594 89.1183 113.533C88.5284 113.482 87.9258 113.556 87.3308 113.609C87.0359 113.635 87.0488 113.827 87.2693 113.952C87.7104 114.203 88.172 114.418 88.6233 114.648C88.6592 114.666 88.7003 114.678 88.7362 114.694L88.7054 114.801C88.4336 114.74 88.154 114.699 87.8899 114.612C87.2437 114.394 86.6 114.167 85.964 113.921C84.9511 113.533 83.9227 113.177 82.9431 112.717C81.6327 112.103 80.3325 111.456 79.0836 110.73C77.6886 109.922 76.3423 109.027 74.9959 108.134C73.3649 107.053 71.8596 105.81 70.4466 104.46C69.3567 103.419 68.2976 102.347 67.2744 101.245C65.6793 99.5267 64.2715 97.6548 62.9944 95.6934C61.8096 93.8778 60.7325 91.9931 59.8555 90.0036C59.3811 88.927 58.8785 87.8581 58.4553 86.761C58.0989 85.8404 57.8245 84.8866 57.5296 83.9404C57.2834 83.1502 57.0372 82.36 56.8372 81.557C56.6448 80.7848 56.5064 79.9997 56.3628 79.2146C56.1704 78.1687 55.9883 77.1202 55.8217 76.0692C55.7473 75.5936 55.6832 75.1128 55.6704 74.6346C55.6191 72.4635 55.5498 70.2745 55.555 68.0881C55.5575 67.0447 55.696 66.0014 55.8165 64.9631C55.9088 64.1806 56.0704 63.4058 56.2038 62.6284C56.3115 61.9916 56.4038 61.3523 56.5346 60.7207C56.6397 60.2118 56.7884 59.7106 56.9192 59.2068C57.0757 58.611 57.2295 58.0126 57.3937 57.4193C57.545 56.8746 57.6911 56.3248 57.8783 55.7903C58.1348 55.0462 58.4066 54.3071 58.7092 53.5809C59.199 52.4122 59.6683 51.2334 60.2402 50.1056C60.9403 48.7247 61.7019 47.3719 62.5046 46.0473C63.1329 45.009 63.8124 43.9938 64.5536 43.0323C65.5768 41.7051 66.6154 40.3779 67.7642 39.1606C69.1131 37.7286 70.5312 36.3502 72.0186 35.064C73.8445 33.4861 75.7986 32.0592 77.9117 30.8675C79.1683 30.1592 80.4094 29.4201 81.6994 28.7808C82.9251 28.1748 84.2074 27.6787 85.4691 27.1416C85.5665 27.1007 85.6896 27.1212 85.8871 27.1084C85.5357 27.4281 85.0331 27.4434 84.9511 27.9676C85.6306 28.0264 86.2717 28.0597 86.9154 27.8884C87.4103 27.7554 87.9258 27.6889 88.4207 27.5534C89.1157 27.3641 89.8183 27.18 90.4877 26.9166C91.1852 26.6404 91.8519 26.3745 92.6315 26.3566C93.983 26.3259 95.3293 26.1469 96.6808 26.0932C98.6426 26.0139 100.607 25.9781 102.571 25.9474C103.592 25.9321 104.613 25.9576 105.631 25.9934C106.477 26.0216 107.321 26.0753 108.164 26.1392C109.139 26.2134 110.113 26.2952 111.083 26.4077C112.026 26.5177 112.965 26.6686 113.906 26.8015C114.014 26.8169 114.129 26.8322 114.232 26.8118C115.447 26.5867 116.576 26.955 117.671 27.3846C118.681 27.781 119.663 28.2515 120.638 28.7297C121.056 28.9343 121.445 29.2156 121.797 29.5224C121.964 29.6656 122.11 29.9648 122.081 30.1669C122.04 30.4609 121.738 30.5862 121.43 30.6093C120.397 30.686 119.409 30.4967 118.417 30.2078C117.424 29.9162 116.465 29.5659 115.601 29.0059C115.227 28.7629 114.842 28.7271 114.424 28.699C113.085 28.6121 111.749 28.4919 110.413 28.3896C109.729 28.3359 109.041 28.2822 108.354 28.2489C107.085 28.1901 105.813 28.1441 104.541 28.1006C103.489 28.0622 102.438 28.0009 101.387 28.0111C100.02 28.0239 98.6528 28.0776 97.286 28.1569C96.1525 28.2208 95.0216 28.3282 93.8907 28.4484C92.7546 28.5711 91.6211 28.7246 90.4877 28.8806C89.5363 29.0135 88.5874 29.1542 87.6411 29.3204C86.6872 29.4866 85.7383 29.6963 84.7844 29.8651C83.7919 30.0415 82.8021 30.1899 81.7788 30.1669C80.8582 30.1464 80.053 30.622 79.2503 31.0312C78.0373 31.6475 76.891 32.3635 75.9627 33.366C75.637 33.7188 75.3806 34.1485 75.1652 34.5806C74.9549 35 75.237 35.3632 75.7319 35.4041C76.4064 35.4603 77.0321 35.2506 77.6552 35.0384C78.9503 34.5934 80.0812 33.8646 81.1942 33.0847C81.5609 32.8264 82.0789 32.765 82.5379 32.6602C83.2483 32.4965 83.9637 32.3635 84.6818 32.2331C85.3434 32.1155 86.0076 32.026 86.6692 31.9109C87.4129 31.783 88.154 31.6373 88.8977 31.5068C89.2285 31.448 89.5619 31.3969 89.8953 31.3585C90.9005 31.246 91.9084 31.1309 92.9162 31.0338C94.0445 30.9263 95.1729 30.8266 96.3038 30.7397C97.0859 30.6783 97.8707 30.6246 98.6554 30.599C100.497 30.5402 102.338 30.4993 104.177 30.4481C105.205 30.42 106.236 30.4072 107.262 30.3356C107.572 30.3126 107.872 30.1208 108.175 29.9955C109.072 29.6222 109.993 29.4994 110.952 29.7014C111.501 29.8191 112.062 29.8779 112.601 30.0236C113.578 30.287 114.475 30.7294 115.311 31.3074C115.958 31.7549 116.583 32.2254 116.896 32.9696C117.283 33.8902 116.994 34.5909 116.309 35.1074C115.399 35.7928 114.352 36.0127 113.226 36.0025C111.544 35.9871 109.921 35.7314 108.572 34.665C107.99 34.2047 107.415 34.0743 106.713 34.0794C103.469 34.1024 100.227 34.0692 96.9834 34.1127C96.3705 34.1203 95.8986 33.9209 95.4062 33.6421C94.7087 33.2458 93.9445 33.0898 93.147 33.0668C91.1006 33.0079 89.2901 33.6191 87.6847 34.8977C86.8436 35.5677 86.2461 36.3886 86.0102 37.4192C85.823 38.2324 86.0743 38.9868 86.6436 39.6209C87.2283 40.2756 87.9694 40.6259 88.8208 40.8075C89.7696 41.007 90.7031 40.9686 91.6545 40.8177C93.2137 40.5697 94.5395 39.8716 95.7217 38.8563C95.7909 38.795 95.9063 38.754 95.9986 38.754C97.3219 38.7592 98.6451 38.7592 99.9684 38.7898C100.974 38.8129 101.976 38.8768 102.979 38.9305C103.764 38.9714 104.548 39.0226 105.333 39.0737C105.936 39.1121 106.538 39.1504 107.139 39.2016C108.293 39.2962 109.449 39.3934 110.603 39.4982C111.539 39.5851 112.475 39.6823 113.411 39.7821C114.298 39.8767 115.183 39.9738 116.068 40.0787C116.822 40.1682 117.573 40.2551 118.325 40.3651C119.489 40.5339 120.651 40.7282 121.815 40.9021C122.289 40.9737 122.771 41.007 123.246 41.0837C123.966 41.2013 124.684 41.342 125.405 41.4698C125.736 41.5286 126.067 41.5823 126.397 41.6488C127.336 41.833 128.275 42.0171 129.211 42.214C129.875 42.3521 130.531 42.5234 131.198 42.6538C131.303 42.6743 131.467 42.5899 131.544 42.503C132.09 41.8892 132.455 41.8278 133.25 42.0503C134.634 42.4416 135.57 43.4082 136.427 44.4592C136.983 45.142 137.463 45.8913 137.922 46.6457C138.414 47.4563 138.558 48.3616 138.448 49.3001C138.355 50.08 137.704 50.7654 136.924 50.7782C136.504 50.7858 136.068 50.6017 135.66 50.4508C134.539 50.034 133.745 49.2029 133.093 48.2542C132.837 47.8808 132.498 47.845 132.162 47.7811C131.267 47.6098 130.365 47.4793 129.462 47.3515C128.949 47.2773 128.431 47.239 127.916 47.1801C126.744 47.0446 125.572 46.904 124.4 46.7633C124.364 46.7582 124.328 46.7582 124.292 46.7556C123.4 46.6994 122.507 46.6431 121.615 46.5843C120.071 46.482 118.527 46.3695 116.983 46.2723C116.017 46.2109 115.05 46.1675 114.083 46.1266C112.729 46.0703 111.375 46.0243 110.021 45.9808C108.703 45.9373 107.385 45.8759 106.064 45.8632C103.428 45.8376 100.792 45.835 98.1553 45.8376C96.1269 45.8376 94.0984 45.8529 92.0699 45.8887C90.7518 45.9117 89.4337 45.9757 88.1156 46.0319C87.1847 46.0703 86.2538 46.124 85.3229 46.1777C84.5741 46.2212 83.8278 46.2672 83.079 46.3235C81.8635 46.4155 80.6479 46.5076 79.4324 46.6175C78.4964 46.7019 77.5604 46.7966 76.6269 46.9065C75.5037 47.042 74.3856 47.198 73.2649 47.3489C73.1829 47.3591 73.1085 47.4128 73.0264 47.4282C72.7469 47.4844 72.4982 47.5458 72.2956 47.2083C72.0007 46.7198 71.5365 46.4743 70.9467 46.4206C70.0081 46.3362 69.2208 46.6943 68.5002 47.2185C67.118 48.226 66.1871 49.5942 65.587 51.172C65.2613 52.0312 65.0152 52.939 65.1357 53.8724C65.2588 54.8109 65.5075 55.7545 66.5436 56.087C66.9975 56.2327 67.5616 56.2481 68.0207 56.1228C69.426 55.7392 70.3979 54.7521 71.2467 53.6193C71.3698 53.4556 71.6442 53.3431 71.8596 53.3149C72.9623 53.1845 74.0676 53.0873 75.1729 52.9825C76.2166 52.8828 77.2603 52.7805 78.3066 52.6961C79.594 52.5887 80.8813 52.4966 82.1712 52.402C82.8816 52.3509 83.5919 52.3023 84.3048 52.2588C85.1998 52.2051 86.0922 52.1591 86.9872 52.113C87.9643 52.0619 88.9413 52.0107 89.9209 51.9698C91.2031 51.9161 92.4828 51.8701 93.765 51.8215C95.0959 51.7729 96.4269 51.7013 97.7578 51.6809C101.628 51.6246 105.497 51.5786 109.367 51.5479C110.921 51.5351 112.478 51.553 114.032 51.5837C115.509 51.6118 116.986 51.6706 118.463 51.7269C119.345 51.7601 120.227 51.8011 121.107 51.8701C121.489 51.9008 121.748 51.8062 121.989 51.4865C122.366 50.9827 122.815 50.5506 123.443 50.3306C124.169 50.0749 124.91 50.0263 125.649 50.1542C127.474 50.4687 128.746 51.6323 129.87 52.9953C130.542 53.811 131.016 54.7393 131.283 55.7545C131.87 57.9972 130.711 60.6695 128.464 61.5978C127.639 61.9379 126.823 61.9098 125.964 61.7692C125.146 61.6336 124.395 61.3651 123.787 60.8332C123.271 60.3831 122.866 59.8103 122.389 59.3168C122.266 59.1889 122.053 59.0943 121.876 59.0841C120.961 59.0252 120.043 58.9818 119.125 58.9613C116.422 58.8948 113.721 58.8104 111.019 58.79C104.669 58.7388 98.322 58.703 91.9725 58.6954C89.6953 58.6928 87.418 58.7798 85.1383 58.836C84.8331 58.8437 84.6741 58.7312 84.4741 58.4882C83.874 57.7543 83.1175 57.2096 82.1943 56.9181C81.5942 56.7288 80.989 56.5933 80.3582 56.6445C79.3862 56.7212 78.4836 57.0255 77.6655 57.5472C76.6064 58.2197 75.8037 59.1326 75.2524 60.2553C74.919 60.9355 74.6446 61.6362 74.5856 62.4059C74.5523 62.8227 74.4574 63.2421 74.4753 63.6564C74.5548 65.5539 75.2498 67.1675 76.809 68.3259C77.4091 68.7709 78.0938 69.0368 78.8477 69.1698C80.6018 69.4741 82.0635 68.8885 83.3611 67.7761C83.7227 67.4667 84.0202 67.078 84.3638 66.7455C84.4689 66.6432 84.6279 66.5512 84.7715 66.5358C85.0972 66.5026 85.4255 66.5154 85.7537 66.5154C93.2675 66.4745 100.784 66.431 108.298 66.3952C110.339 66.385 112.38 66.4054 114.419 66.4208C114.693 66.4208 114.97 66.4796 115.245 66.5154C115.583 66.5563 115.814 66.4412 116.019 66.1497C116.45 65.5385 116.937 64.958 117.617 64.6102C118.071 64.3801 118.55 64.1704 119.045 64.063C119.604 63.9428 120.191 63.9172 120.766 63.907C121.697 63.8891 122.517 64.2522 123.284 64.7381C124.572 65.5564 125.52 66.6714 126.144 68.0574C126.6 69.0726 126.8 70.1594 126.615 71.2514C126.3 73.1233 125.351 74.6602 123.841 75.8212C122.987 76.4784 122.051 76.9515 120.93 77.0205C119.612 77.1049 118.366 76.9412 117.301 76.1152C116.853 75.7675 116.486 75.3046 116.106 74.8699C115.893 74.6269 115.701 74.4684 115.34 74.4735C113.009 74.5042 110.675 74.5042 108.344 74.5246C108.123 74.5246 107.977 74.4709 107.833 74.2945C106.995 73.2818 105.969 72.5044 104.715 72.0953C103.584 71.727 102.425 71.6452 101.23 71.8702C100.174 72.0723 99.2324 72.4865 98.3835 73.1054C97.2988 73.8981 96.5346 74.9594 96.0807 76.2073C95.6601 77.3632 95.6165 78.5625 95.855 79.7849C96.173 81.4241 97.0629 82.6746 98.3374 83.6923C99.0452 84.2549 99.8376 84.6666 100.725 84.8482C101.32 84.9709 101.93 85.1065 102.533 85.1039C103.992 85.0963 105.338 84.6564 106.513 83.7895C106.977 83.4468 107.359 82.9968 107.795 82.6183C107.926 82.5058 108.11 82.4009 108.277 82.3907C108.918 82.3575 109.564 82.3754 110.208 82.3523C111.295 82.314 112.383 82.2603 113.47 82.2066C114.339 82.1631 115.209 82.112 116.078 82.0634C116.912 82.0148 117.742 81.9688 118.576 81.9151C119.312 81.869 120.048 81.8204 120.781 81.7693C121.469 81.7233 122.156 81.6772 122.841 81.6235C124.105 81.5289 125.369 81.4343 126.633 81.332C127.787 81.2399 128.941 81.1428 130.093 81.0405C131.126 80.9484 132.16 80.8512 133.193 80.749C134.116 80.6569 135.04 80.5597 135.963 80.4574C136.801 80.3654 137.637 80.2708 138.473 80.1608C138.996 80.0917 139.517 80.0074 140.033 79.8897C140.158 79.8616 140.279 79.6979 140.35 79.5675C140.674 78.9742 140.974 78.3579 141.522 77.9386C141.812 77.7186 142.156 77.5192 142.505 77.4424C143.146 77.2992 143.72 77.6777 143.989 78.3196C144.356 79.1967 144.523 80.1173 144.41 81.0558C144.223 82.6336 143.653 84.0887 142.782 85.4133C142.407 85.9836 142.035 86.5692 141.402 86.9196C140.586 87.3671 139.794 87.2955 139.461 86.2649C139.422 86.1447 139.34 86.0373 139.281 85.9299L139.286 85.9376ZM118.014 70.428C118.03 70.7041 118.032 70.9343 118.06 71.1619C118.076 71.277 118.148 71.3818 118.181 71.4969C118.571 72.888 120.117 73.9339 121.684 73.3637C122.753 72.9724 123.364 72.1669 123.569 71.1031C123.746 70.185 123.597 69.2772 122.987 68.5049C122.225 67.5408 120.922 67.078 119.763 67.6303C118.561 68.2057 118.027 69.1775 118.017 70.428H118.014ZM128.867 56.3478C128.828 56.179 128.77 55.9259 128.713 55.6727C128.493 54.724 127.954 54.0054 127.118 53.5118C126.267 53.0081 125.415 53.0106 124.725 53.5451C123.738 54.3071 123.741 55.5193 124.092 56.4476C124.384 57.2224 124.877 57.8617 125.633 58.276C126.303 58.6417 126.967 58.7849 127.692 58.4294C128.528 58.0203 128.785 57.2914 128.867 56.3478ZM120.871 100.156C121.112 100.133 121.374 100.161 121.592 100.077C122.707 99.652 123.612 98.9769 123.977 97.7853C124.12 97.3173 124.118 96.8135 123.753 96.4044C123.261 95.8469 122.671 95.7088 121.928 95.8571C120.812 96.0796 120.004 96.6882 119.435 97.6267C119.168 98.0666 118.961 98.5499 119.143 99.1022C119.422 99.9436 120.048 100.202 120.871 100.156ZM111.267 31.1539C110.772 31.1539 110.285 31.177 109.857 31.4787C109.552 31.6935 109.331 32.1615 109.508 32.4172C109.747 32.7624 110.008 33.1332 110.352 33.3608C111.236 33.9439 112.214 34.1894 113.291 33.9746C113.809 33.8723 114.214 33.6524 114.355 33.1486C114.468 32.7445 114.173 32.4505 113.903 32.182C113.175 31.4583 112.278 31.1642 111.267 31.1514V31.1539ZM136.742 47.2875C136.73 47.1725 136.75 46.9756 136.683 46.8145C136.265 45.7967 135.665 44.9247 134.67 44.3748C134.157 44.091 133.544 44.2316 133.411 44.7329C133.347 44.9758 133.421 45.275 133.491 45.5333C133.801 46.6764 134.439 47.5816 135.524 48.1135C135.75 48.2235 136.055 48.3155 136.278 48.2542C136.706 48.1365 136.776 47.9217 136.742 47.285V47.2875ZM140.81 83.2704C140.81 83.4289 140.784 83.59 140.815 83.7409C140.876 84.0555 140.963 84.4032 141.284 84.5311C141.625 84.6666 141.966 84.5183 142.171 84.2268C142.451 83.8279 142.748 83.4161 142.91 82.9635C143.166 82.2424 143.433 81.5059 143.156 80.7029C143.059 80.4191 142.966 80.148 142.674 80.0611C142.315 79.9562 142.048 80.217 141.848 80.4421C141.138 81.2425 140.856 82.2194 140.812 83.2704H140.81ZM132.434 102.488C132.316 102.34 132.249 102.171 132.157 102.156C131.962 102.122 131.731 102.12 131.552 102.191C130.665 102.547 129.941 103.135 129.38 103.897C129.185 104.163 129.057 104.495 128.972 104.818C128.911 105.055 129.129 105.191 129.352 105.168C129.562 105.145 129.775 105.073 129.965 104.976C130.762 104.575 131.416 103.992 131.965 103.299C132.149 103.066 132.27 102.782 132.437 102.488H132.434ZM116.142 27.717C116.076 28.1952 116.442 28.3052 116.722 28.4842C117.573 29.0263 118.502 29.3562 119.512 29.4253C119.65 29.4355 119.797 29.3076 119.94 29.2437C119.868 29.1184 119.827 28.9445 119.72 28.878C119.258 28.589 118.799 28.2822 118.301 28.0725C117.63 27.7886 116.93 27.5687 116.142 27.717ZM119.486 112.305C120.032 112.4 120.512 112.254 120.956 112.026C121.607 111.689 122.24 111.313 122.864 110.929C122.956 110.873 122.959 110.676 123.005 110.543C122.874 110.513 122.73 110.433 122.617 110.461C121.756 110.681 120.927 110.996 120.184 111.482C119.897 111.671 119.527 111.855 119.486 112.305Z" fill="white"/>
<path d="M92.2238 115.696C92.4084 115.696 92.593 115.678 92.7751 115.699C93.4649 115.773 94.1522 115.893 94.8446 115.937C96.1858 116.024 97.527 116.098 98.8708 116.134C100.92 116.187 102.969 116.221 105.015 116.226C105.895 116.226 106.779 116.172 107.657 116.077C108.195 116.019 108.721 115.837 109.257 115.717C109.78 115.599 110.306 115.484 110.831 115.382C111.583 115.236 112.337 115.09 113.093 114.97C113.611 114.888 114.137 114.855 114.757 114.789C114.475 115.159 114.116 115.124 113.827 115.226C112.914 115.551 111.931 115.476 111.001 115.689C110.436 115.817 109.895 116.044 109.334 116.187C108.964 116.282 108.577 116.323 108.195 116.366C107.595 116.433 106.995 116.497 106.392 116.535C105.379 116.599 104.364 116.648 103.348 116.696C102.589 116.732 101.828 116.791 101.068 116.783C100.199 116.776 99.3272 116.724 98.4605 116.655C97.5347 116.581 96.6115 116.487 95.6909 116.364C94.8138 116.246 93.9394 116.088 93.0675 115.937C92.7828 115.888 92.5033 115.804 92.2212 115.737V115.694L92.2238 115.696Z" fill="white"/>
<path d="M91.1162 25.4209C91.683 25.3058 92.2523 25.1933 92.819 25.0807C93.4986 24.9452 94.1781 24.8071 94.8628 24.6818C95.2424 24.6128 95.6245 24.5667 96.0066 24.5182C96.4015 24.467 96.7964 24.4031 97.1939 24.3826C98.5736 24.3136 99.9507 24.2266 101.333 24.2164C101.948 24.2113 102.561 24.4235 103.179 24.4517C103.772 24.4798 104.369 24.3954 104.967 24.3622C105.154 24.3519 105.344 24.3366 105.531 24.3468C106.105 24.3801 106.68 24.4235 107.254 24.4619L107.275 24.5974C107.123 24.6588 106.972 24.7636 106.818 24.7713C105.841 24.8276 104.862 24.889 103.882 24.8941C103.11 24.8992 102.328 24.8813 101.566 24.7713C100.553 24.6281 99.5429 24.5923 98.5274 24.6639C97.4811 24.7381 96.4374 24.8455 95.3962 24.9606C94.7039 25.0347 94.0166 25.1421 93.3268 25.2419C92.8062 25.316 92.2856 25.4055 91.765 25.4771C91.5547 25.5052 91.3393 25.5027 91.1265 25.5155L91.1188 25.4183L91.1162 25.4209Z" fill="white"/>
<path d="M225.431 36.4224V52.9728H207.752V103H186.876V52.9728H169.385V36.4224H225.431ZM261.372 36.4224V103H240.496V36.4224H261.372ZM278.324 69.6172C278.324 63.0347 279.64 57.1731 282.273 52.0324C284.969 46.8918 288.793 42.9109 293.746 40.0898C298.698 37.2061 304.529 35.7642 311.236 35.7642C317.004 35.7642 322.145 36.8613 326.658 39.0554C331.235 41.1869 334.934 44.2274 337.755 48.177C340.638 52.1265 342.55 56.7342 343.491 62.0003H321.486C320.483 59.8061 319.041 58.1134 317.161 56.9223C315.343 55.6685 313.243 55.0416 310.86 55.0416C307.35 55.0416 304.56 56.3581 302.491 58.9911C300.485 61.6241 299.482 65.1661 299.482 69.6172C299.482 74.0682 300.485 77.6103 302.491 80.2433C304.56 82.8763 307.35 84.1928 310.86 84.1928C313.243 84.1928 315.343 83.5972 317.161 82.4061C319.041 81.1523 320.483 79.4283 321.486 77.2341H343.491C342.55 82.5001 340.638 87.1079 337.755 91.0574C334.934 95.0069 331.235 98.0788 326.658 100.273C322.145 102.404 317.004 103.47 311.236 103.47C304.529 103.47 298.698 102.06 293.746 99.2386C288.793 96.3548 284.969 92.3426 282.273 87.2019C279.64 82.0613 278.324 76.1997 278.324 69.6172ZM386.459 103.658C378.497 103.658 371.914 101.809 366.711 98.1101C361.57 94.3487 358.781 88.8632 358.342 81.6538H380.534C380.848 85.4779 382.541 87.39 385.612 87.39C386.741 87.39 387.681 87.1392 388.433 86.6377C389.248 86.0735 389.656 85.2272 389.656 84.0987C389.656 82.5315 388.81 81.2777 387.117 80.3373C385.424 79.3342 382.791 78.2058 379.218 76.952C374.955 75.4474 371.413 73.9742 368.592 72.5323C365.833 71.0904 363.451 68.9903 361.445 66.2319C359.439 63.4735 358.467 59.9315 358.53 55.6058C358.53 51.2801 359.627 47.6127 361.821 44.6036C364.078 41.5317 367.119 39.2122 370.943 37.6449C374.83 36.0776 379.187 35.294 384.014 35.294C392.164 35.294 398.621 37.1747 403.385 40.9362C408.212 44.6976 410.751 49.995 411.002 56.8283H388.528C388.465 54.9475 387.995 53.5997 387.117 52.7847C386.239 51.9697 385.174 51.5622 383.92 51.5622C383.042 51.5622 382.321 51.8757 381.757 52.5026C381.193 53.0668 380.911 53.8818 380.911 54.9475C380.911 56.4521 381.726 57.7059 383.356 58.709C385.048 59.6494 387.713 60.8091 391.349 62.1883C395.549 63.7556 398.997 65.2602 401.693 66.7021C404.451 68.144 406.833 70.1501 408.839 72.7204C410.845 75.2907 411.848 78.5193 411.848 82.4061C411.848 86.481 410.845 90.1484 408.839 93.4083C406.833 96.6055 403.918 99.1132 400.094 100.931C396.27 102.749 391.725 103.658 386.459 103.658Z" fill="white"/>
</svg>
