<svg width="20" height="20" viewBox="0 0 20 20" fill="none" xmlns="http://www.w3.org/2000/svg">
<path d="M19.249 10C19.6638 10 20.0029 9.6633 19.9718 9.24973C19.8429 7.53617 19.2741 5.88011 18.3147 4.4443C17.2159 2.79981 15.6541 1.51808 13.8268 0.761205C11.9996 0.00432834 9.98891 -0.193705 8.0491 0.192147C6.10929 0.577999 4.32746 1.53041 2.92893 2.92893C1.53041 4.32746 0.577999 6.10929 0.192147 8.0491C-0.193705 9.98891 0.00432836 11.9996 0.761205 13.8268C1.51808 15.6541 2.79981 17.2159 4.4443 18.3147C5.88011 19.2741 7.53617 19.8429 9.24973 19.9718C9.6633 20.0029 10 19.6638 10 19.249C10 18.8343 9.66312 18.5015 9.24999 18.4649C7.83384 18.3395 6.46746 17.8602 5.27872 17.0659C3.88122 16.1321 2.792 14.8049 2.1488 13.2521C1.5056 11.6993 1.33731 9.99057 1.66521 8.34211C1.99311 6.69364 2.80248 5.17943 3.99095 3.99095C5.17943 2.80248 6.69364 1.99311 8.34211 1.66521C9.99057 1.33731 11.6993 1.5056 13.2521 2.1488C14.8049 2.792 16.1321 3.88122 17.0659 5.27872C17.8602 6.46746 18.3395 7.83384 18.4649 9.24999C18.5015 9.66312 18.8343 10 19.249 10Z" fill="white"/>
</svg>
